<svg width="100" height="100" viewBox="0 0 100 100" xmlns="http://www.w3.org/2000/svg">
  <defs>
    <pattern id="circuitPattern" patternUnits="userSpaceOnUse" width="100" height="100">
      <!-- Horizontal lines -->
      <line x1="0" y1="20" x2="100" y2="20" stroke="#2E8B57" stroke-width="0.5" stroke-opacity="0.2" />
      <line x1="0" y1="40" x2="100" y2="40" stroke="#2E8B57" stroke-width="0.5" stroke-opacity="0.2" />
      <line x1="0" y1="60" x2="100" y2="60" stroke="#2E8B57" stroke-width="0.5" stroke-opacity="0.2" />
      <line x1="0" y1="80" x2="100" y2="80" stroke="#2E8B57" stroke-width="0.5" stroke-opacity="0.2" />
      
      <!-- Vertical lines -->
      <line x1="20" y1="0" x2="20" y2="100" stroke="#FF6B00" stroke-width="0.5" stroke-opacity="0.2" />
      <line x1="40" y1="0" x2="40" y2="100" stroke="#FF6B00" stroke-width="0.5" stroke-opacity="0.2" />
      <line x1="60" y1="0" x2="60" y2="100" stroke="#FF6B00" stroke-width="0.5" stroke-opacity="0.2" />
      <line x1="80" y1="0" x2="80" y2="100" stroke="#FF6B00" stroke-width="0.5" stroke-opacity="0.2" />
      
      <!-- Connection nodes -->
      <circle cx="20" cy="20" r="1.5" fill="#2E8B57" />
      <circle cx="40" cy="20" r="1.5" fill="#2E8B57" />
      <circle cx="60" cy="20" r="1.5" fill="#2E8B57" />
      <circle cx="80" cy="20" r="1.5" fill="#2E8B57" />
      
      <circle cx="20" cy="40" r="1.5" fill="#2E8B57" />
      <circle cx="40" cy="40" r="1.5" fill="#FF6B00" />
      <circle cx="60" cy="40" r="1.5" fill="#FF6B00" />
      <circle cx="80" cy="40" r="1.5" fill="#2E8B57" />
      
      <circle cx="20" cy="60" r="1.5" fill="#2E8B57" />
      <circle cx="40" cy="60" r="1.5" fill="#FF6B00" />
      <circle cx="60" cy="60" r="1.5" fill="#FF6B00" />
      <circle cx="80" cy="60" r="1.5" fill="#2E8B57" />
      
      <circle cx="20" cy="80" r="1.5" fill="#2E8B57" />
      <circle cx="40" cy="80" r="1.5" fill="#2E8B57" />
      <circle cx="60" cy="80" r="1.5" fill="#2E8B57" />
      <circle cx="80" cy="80" r="1.5" fill="#2E8B57" />
      
      <!-- Circuit paths -->
      <path d="M40,20 L60,20 L60,40" stroke="#2E8B57" stroke-width="0.8" stroke-opacity="0.3" fill="none" />
      <path d="M40,60 L40,80 L60,80" stroke="#2E8B57" stroke-width="0.8" stroke-opacity="0.3" fill="none" />
      <path d="M20,40 L20,60" stroke="#FF6B00" stroke-width="0.8" stroke-opacity="0.3" fill="none" />
      <path d="M80,40 L80,60" stroke="#FF6B00" stroke-width="0.8" stroke-opacity="0.3" fill="none" />
      <path d="M60,60 L70,60 L70,70 L60,70" stroke="#FF6B00" stroke-width="0.8" stroke-opacity="0.3" fill="none" />
      <path d="M40,40 L30,40 L30,30 L40,30" stroke="#FF6B00" stroke-width="0.8" stroke-opacity="0.3" fill="none" />
    </pattern>
  </defs>
  <rect width="100%" height="100%" fill="url(#circuitPattern)" />
</svg> 